<?xml version="1.0" standalone="no"?>
<!DOCTYPE svg PUBLIC "-//W3C//DTD SVG 20010904//EN"
 "http://www.w3.org/TR/2001/REC-SVG-20010904/DTD/svg10.dtd">
<svg version="1.0" xmlns="http://www.w3.org/2000/svg"
 width="402.000000pt" height="125.000000pt" viewBox="0 0 402.000000 125.000000"
 preserveAspectRatio="xMidYMid meet">

<g transform="translate(0.000000,125.000000) scale(0.100000,-0.100000)"
fill="#000000" stroke="none">
<path d="M1413 923 c9 -2 25 -2 35 0 9 3 1 5 -18 5 -19 0 -27 -2 -17 -5z"/>
<path d="M1548 923 c6 -2 18 -2 25 0 6 3 1 5 -13 5 -14 0 -19 -2 -12 -5z"/>
<path d="M1718 923 c6 -2 18 -2 25 0 6 3 1 5 -13 5 -14 0 -19 -2 -12 -5z"/>
<path d="M1873 923 c9 -2 25 -2 35 0 9 3 1 5 -18 5 -19 0 -27 -2 -17 -5z"/>
<path d="M2048 923 c20 -4 22 -10 22 -64 0 -68 12 -99 39 -99 32 0 42 24 38
92 l-3 63 -2 -68 c-2 -51 -6 -69 -18 -74 -26 -10 -39 15 -44 85 -5 63 -7 67
-30 69 -22 1 -22 1 -2 -4z"/>
<path d="M2168 923 c6 -2 18 -2 25 0 6 3 1 5 -13 5 -14 0 -19 -2 -12 -5z"/>
<path d="M2237 923 c-4 -3 -7 -15 -7 -26 0 -16 -3 -17 -15 -7 -13 11 -15 4
-15 -52 0 -87 -22 -118 -85 -118 -71 0 -88 22 -96 121 -3 46 -7 72 -7 58 -1
-14 -5 -29 -9 -33 -4 -4 -8 -25 -8 -48 -1 -32 -8 -46 -33 -69 -17 -15 -27 -31
-23 -34 15 -9 40 5 46 26 9 27 22 24 55 -11 23 -25 36 -30 74 -30 36 0 50 5
71 27 14 15 25 31 25 35 0 5 5 8 10 8 6 0 10 -11 10 -25 0 -14 8 -29 19 -35
25 -13 128 -13 136 0 4 6 -22 10 -69 10 l-76 0 0 100 0 99 78 4 77 3 -76 2
c-42 1 -79 -1 -82 -5z"/>
<path d="M2543 923 c20 -2 54 -2 75 0 20 2 3 4 -38 4 -41 0 -58 -2 -37 -4z"/>
<path d="M2793 923 c15 -2 39 -2 55 0 15 2 2 4 -28 4 -30 0 -43 -2 -27 -4z"/>
<path d="M3003 923 c20 -2 54 -2 75 0 20 2 3 4 -38 4 -41 0 -58 -2 -37 -4z"/>
<path d="M3203 922 c-6 -4 13 -7 42 -7 29 0 48 3 42 7 -7 4 -25 8 -42 8 -16 0
-35 -4 -42 -8z"/>
<path d="M3395 899 c-9 -17 -14 -33 -12 -35 2 -3 10 9 17 25 8 20 21 31 38 34
l27 4 -27 2 c-21 1 -31 -6 -43 -30z"/>
<path d="M1345 890 c-16 -16 -27 -31 -24 -33 2 -1 18 12 36 30 17 18 28 33 24
33 -4 0 -20 -13 -36 -30z"/>
<path d="M1495 898 c28 -22 28 -22 6 -30 -13 -5 -31 -4 -42 3 -44 23 -98 -27
-80 -75 13 -34 19 -33 13 2 -5 37 12 49 76 53 l52 4 0 -49 c0 -49 0 -49 -20
-31 -16 15 -23 16 -33 6 -9 -10 -9 -11 4 -6 9 3 22 -1 29 -10 19 -23 -14 -44
-71 -45 -53 0 -94 30 -104 77 -11 46 -16 51 -11 9 12 -93 91 -133 180 -88 l36
17 0 73 c0 64 -3 76 -22 93 -13 10 -27 18 -32 19 -5 0 4 -10 19 -22z"/>
<path d="M1825 910 c-3 -6 1 -7 9 -4 18 7 21 14 7 14 -6 0 -13 -4 -16 -10z"/>
<path d="M2881 916 c2 -2 15 -9 29 -15 24 -11 24 -11 6 3 -16 13 -49 24 -35
12z"/>
<path d="M1592 838 l-2 -78 48 1 47 2 -40 6 -40 6 -6 70 -5 70 -2 -77z"/>
<path d="M1692 818 l-2 -98 -76 0 c-50 0 -73 -3 -69 -11 7 -11 190 -7 202 4 3
4 -6 7 -20 7 l-26 0 -4 98 -3 97 -2 -97z"/>
<path d="M1751 821 c-1 -83 1 -92 14 -81 13 11 19 9 38 -7 39 -35 115 -73 146
-73 26 0 61 21 61 38 0 3 -5 1 -12 -6 -18 -18 -76 -14 -106 7 -15 10 -37 21
-49 25 -56 18 -80 98 -47 154 l16 27 -20 -25 c-16 -19 -22 -22 -26 -10 -2 8
-7 22 -9 30 -3 8 -6 -27 -6 -79z"/>
<path d="M1965 890 c10 -11 20 -20 23 -20 3 0 -3 9 -13 20 -10 11 -20 20 -23
20 -3 0 3 -9 13 -20z"/>
<path d="M2492 819 c-1 -63 2 -99 10 -107 15 -15 122 -16 149 -2 25 14 25 50
-1 57 -22 6 -26 18 -9 28 12 8 8 67 -6 77 -5 4 -27 8 -47 8 -31 0 -38 -4 -38
-20 0 -17 7 -20 45 -20 38 0 45 -3 45 -20 0 -17 -7 -20 -45 -20 -38 0 -45 -3
-45 -20 0 -18 7 -20 55 -20 48 0 55 -2 55 -20 0 -18 -7 -20 -80 -20 l-79 0 -4
98 -3 97 -2 -96z"/>
<path d="M2754 820 c0 -52 1 -74 3 -47 2 26 2 68 0 95 -2 26 -3 4 -3 -48z"/>
<path d="M3121 894 c0 -11 3 -14 6 -6 3 7 2 16 -1 19 -3 4 -6 -2 -5 -13z"/>
<path d="M3159 893 c-13 -16 -12 -17 4 -4 16 13 21 21 13 21 -2 0 -10 -8 -17
-17z"/>
<path d="M1850 860 c-50 -50 7 -124 71 -90 28 15 26 74 -3 94 -30 21 -44 20
-68 -4z m74 -32 c16 -26 -4 -53 -40 -53 -23 0 -30 5 -32 23 -7 47 47 69 72 30z"/>
<path d="M2290 860 c0 -17 7 -20 45 -20 38 0 45 -3 45 -20 0 -17 -7 -20 -45
-20 -38 0 -45 -3 -45 -20 0 -18 6 -20 58 -19 37 1 49 3 33 8 -21 6 -22 8 -7
20 18 15 21 46 6 56 -6 4 -8 10 -5 15 6 11 -19 20 -56 20 -22 0 -29 -5 -29
-20z"/>
<path d="M2935 870 c4 -6 4 -24 0 -40 -8 -35 -48 -60 -94 -60 -24 0 -28 -4
-24 -19 5 -20 15 -17 97 25 33 17 34 16 39 -14 8 -51 17 -29 17 41 0 71 -2 77
-21 77 -11 0 -17 -5 -14 -10z"/>
<path d="M3020 860 c0 -17 7 -20 39 -20 24 0 41 5 44 14 7 17 -13 26 -54 26
-22 0 -29 -5 -29 -20z"/>
<path d="M3212 864 c-43 -30 -18 -104 36 -104 11 0 23 4 26 8 3 5 -7 7 -23 4
-37 -5 -55 17 -41 52 9 24 15 27 50 24 29 -1 45 3 58 17 16 18 16 18 -1 5 -14
-10 -23 -10 -43 -1 -32 14 -35 14 -62 -5z"/>
<path d="M2820 839 c0 -18 4 -28 10 -24 6 4 8 10 5 15 -3 4 2 10 10 14 9 3 15
0 15 -9 0 -18 16 -20 22 -2 9 23 -4 37 -33 37 -26 0 -29 -3 -29 -31z"/>
<path d="M3423 830 c-11 -28 -10 -30 13 -30 27 0 29 5 11 37 l-13 23 -11 -30z"/>
<path d="M3127 833 c-4 -12 -5 -33 -1 -46 5 -22 3 -25 -14 -20 -13 3 -18 11
-15 19 4 11 -5 14 -36 14 -34 0 -41 -3 -41 -20 0 -17 7 -20 50 -20 43 0 50 -3
50 -20 0 -18 -7 -20 -77 -20 -54 0 -74 -3 -66 -11 5 -5 38 -9 73 -7 51 2 65 7
74 23 6 11 12 22 13 24 1 2 21 -13 43 -33 22 -20 46 -36 53 -35 9 0 9 2 0 6
-7 2 -13 11 -13 18 0 8 -8 16 -19 20 -31 9 -54 43 -61 88 -5 35 -7 38 -13 20z"/>
<path d="M3501 835 c0 -5 6 -21 14 -35 8 -14 14 -20 14 -15 0 6 -6 21 -14 35
-8 14 -14 21 -14 15z"/>
<path d="M3350 800 c-9 -21 -18 -29 -28 -25 -12 4 -12 3 -3 -9 10 -11 7 -17
-11 -30 -12 -9 -31 -16 -42 -16 -19 0 -19 -1 -3 -17 15 -15 19 -16 26 -4 6 10
19 12 43 7 27 -5 41 -2 61 14 32 25 52 25 84 0 30 -23 43 -25 67 -7 16 12 14
13 -17 9 -29 -3 -36 0 -42 17 -5 17 -14 21 -50 21 -35 0 -45 -4 -50 -20 -4
-13 -15 -20 -31 -20 -22 0 -24 3 -18 23 3 12 13 35 21 50 8 16 12 31 10 33 -2
3 -10 -9 -17 -26z"/>
<path d="M1418 763 c6 -2 18 -2 25 0 6 3 1 5 -13 5 -14 0 -19 -2 -12 -5z"/>
<path d="M3530 761 c0 -6 4 -13 10 -16 6 -3 7 1 4 9 -7 18 -14 21 -14 7z"/>
<path d="M2773 709 c14 -8 22 -8 30 0 8 8 3 11 -18 11 -26 -1 -28 -2 -12 -11z"/>
<path d="M3264 669 c-3 -6 -22 -9 -41 -7 -31 4 -33 3 -17 -9 26 -19 52 -16 64
7 11 21 6 28 -6 9z"/>
<path d="M1193 543 c15 -2 39 -2 55 0 15 2 2 4 -28 4 -30 0 -43 -2 -27 -4z"/>
<path d="M1403 543 c20 -2 54 -2 75 0 20 2 3 4 -38 4 -41 0 -58 -2 -37 -4z"/>
<path d="M1558 543 c6 -2 18 -2 25 0 6 3 1 5 -13 5 -14 0 -19 -2 -12 -5z"/>
<path d="M1793 543 c9 -2 25 -2 35 0 9 3 1 5 -18 5 -19 0 -27 -2 -17 -5z"/>
<path d="M2006 541 c-13 -20 34 -180 61 -206 23 -24 52 -18 71 15 16 29 42 41
42 20 0 -15 38 -50 54 -50 24 0 44 27 61 85 8 30 20 55 25 55 6 0 10 -27 10
-60 0 -50 3 -61 21 -71 15 -8 24 -8 32 0 8 8 4 11 -16 11 l-27 0 0 95 c0 60
-4 95 -11 95 -5 0 -8 -4 -5 -9 4 -5 2 -11 -2 -13 -5 -1 -21 -40 -36 -85 -26
-77 -30 -83 -55 -83 -24 0 -29 6 -48 63 l-20 62 -19 -62 c-17 -57 -22 -63 -46
-63 -24 0 -29 7 -57 93 -17 50 -31 95 -31 100 0 11 48 8 53 -3 3 -6 4 -5 3 2
-3 16 -52 23 -60 9z"/>
<path d="M2135 540 c-4 -6 -4 -14 -1 -17 3 -4 6 -1 6 5 0 15 46 16 53 2 3 -6
4 -5 3 2 -3 17 -52 23 -61 8z"/>
<path d="M2267 543 c-4 -3 -7 -11 -7 -17 0 -7 3 -7 8 0 4 7 16 14 27 17 19 5
19 5 -1 6 -11 0 -24 -2 -27 -6z"/>
<path d="M2358 543 c6 -2 18 -2 25 0 6 3 1 5 -13 5 -14 0 -19 -2 -12 -5z"/>
<path d="M2488 543 c6 -2 18 -2 25 0 6 3 1 5 -13 5 -14 0 -19 -2 -12 -5z"/>
<path d="M2638 543 c6 -2 18 -2 25 0 6 3 1 5 -13 5 -14 0 -19 -2 -12 -5z"/>
<path d="M2798 543 c23 -2 61 -2 85 0 23 2 4 4 -43 4 -47 0 -66 -2 -42 -4z"/>
<path d="M2962 534 c-12 -8 -22 -12 -23 -7 0 4 -4 -2 -9 -14 -6 -16 -18 -23
-35 -23 -24 0 -25 -2 -23 -67 l1 -68 6 55 c7 66 31 79 56 31 8 -17 20 -31 25
-31 6 0 9 -6 8 -12 -4 -16 71 -18 74 -3 2 6 -15 16 -37 23 -43 14 -75 38 -75
57 0 28 38 58 81 65 42 7 43 8 9 9 -20 0 -46 -6 -58 -15z"/>
<path d="M3165 519 c-9 -17 -14 -33 -12 -35 2 -3 10 9 17 26 14 34 52 41 69
13 6 -10 11 -13 11 -7 0 17 -23 34 -47 34 -15 0 -28 -10 -38 -31z"/>
<path d="M3325 538 c-2 -7 -6 -40 -7 -73 -2 -42 -7 -59 -16 -57 -9 2 -9 -6 2
-33 l15 -35 -29 0 c-20 0 -31 6 -35 20 -5 16 -15 20 -50 20 -35 0 -45 -4 -50
-20 -4 -13 -15 -20 -31 -20 -29 0 -27 14 7 82 25 49 24 62 -1 20 l-21 -33 -20
23 -20 23 17 -28 c16 -27 16 -29 -3 -55 -18 -24 -27 -27 -82 -27 -33 0 -61 -3
-61 -7 0 -25 184 -20 223 5 33 21 51 21 84 0 16 -10 48 -18 76 -19 41 -1 51 3
64 23 8 12 23 23 32 23 9 0 34 9 56 20 22 11 41 20 42 20 2 0 3 -16 3 -35 0
-38 32 -67 53 -46 8 8 4 11 -16 11 l-27 0 -1 98 c-1 53 -3 89 -6 79 -3 -11
-11 -16 -19 -13 -11 4 -12 2 -4 -14 12 -21 1 -59 -24 -79 -8 -7 -33 -15 -56
-18 -34 -5 -40 -9 -40 -29 0 -19 -5 -24 -25 -24 -25 0 -25 0 -25 99 l0 100 53
4 52 3 -53 2 c-34 1 -54 -2 -57 -10z"/>
<path d="M3563 543 c15 -2 37 -2 50 0 12 2 0 4 -28 4 -27 0 -38 -2 -22 -4z"/>
<path d="M1280 536 c0 -2 7 -7 16 -10 8 -3 12 -2 9 4 -6 10 -25 14 -25 6z"/>
<path d="M1602 463 l-2 -83 48 1 47 2 -40 6 -40 6 -6 75 -5 75 -2 -82z"/>
<path d="M1725 510 c-16 -16 -27 -31 -24 -33 2 -1 18 12 36 30 17 18 28 33 24
33 -4 0 -20 -13 -36 -30z"/>
<path d="M1883 507 c18 -18 34 -31 36 -30 6 4 -51 63 -60 63 -4 0 7 -15 24
-33z"/>
<path d="M3450 536 c0 -2 7 -7 16 -10 8 -3 12 -2 9 4 -6 10 -25 14 -25 6z"/>
<path d="M3678 512 c15 -15 29 -26 31 -25 6 4 -41 53 -50 53 -4 0 4 -13 19
-28z"/>
<path d="M1152 438 c-2 -90 0 -98 19 -109 15 -8 24 -8 32 0 8 8 4 11 -16 11
l-26 0 -4 98 -3 97 -2 -97z"/>
<path d="M1352 510 c-3 -24 -3 -24 -17 -6 -17 23 -20 14 -4 -16 24 -45 -25
-98 -91 -98 -23 0 -30 -5 -30 -20 0 -22 3 -24 28 -11 9 5 35 17 57 27 22 10
43 20 48 22 4 2 7 -12 7 -30 0 -19 5 -39 12 -46 16 -16 140 -16 156 0 10 10
17 10 32 0 24 -14 126 -16 135 -2 4 6 -20 10 -64 10 l-71 0 0 91 0 91 -22 -14
c-14 -9 -39 -13 -64 -10 -35 3 -42 1 -47 -17 -5 -19 -1 -21 37 -21 32 0 44 5
55 22 14 22 14 22 22 3 9 -24 11 -89 3 -97 -11 -11 -43 4 -37 18 4 11 -5 14
-39 14 -37 0 -44 -3 -44 -20 0 -17 7 -20 53 -20 46 0 53 -3 53 -20 0 -18 -7
-20 -80 -20 l-79 0 -4 98 c-1 53 -4 86 -5 72z"/>
<path d="M2532 438 c-2 -98 -2 -98 -28 -98 -14 0 -23 -4 -20 -8 9 -15 95 -6
131 14 l36 19 39 -23 c32 -18 44 -20 60 -12 24 13 24 17 4 50 -15 24 -14 16 1
-22 11 -27 -41 -24 -55 2 -8 15 -21 20 -50 20 -29 0 -42 -5 -50 -20 -6 -12
-21 -20 -35 -20 -29 0 -30 2 -9 41 8 17 13 33 10 37 -3 3 -6 0 -6 -6 0 -7 -4
-12 -10 -12 -5 0 -11 30 -13 68 -3 56 -3 51 -5 -30z"/>
<path d="M2741 514 c0 -11 3 -14 6 -6 3 7 2 16 -1 19 -3 4 -6 -2 -5 -13z"/>
<path d="M3083 505 c-4 -13 -15 -14 -50 -9 -40 6 -45 5 -41 -12 2 -12 12 -19
26 -18 12 0 22 -3 22 -8 0 -4 5 -8 11 -8 5 0 8 4 5 9 -3 5 1 11 8 14 15 6 42
47 31 47 -3 0 -8 -7 -12 -15z"/>
<path d="M2592 485 c-17 -37 -14 -45 4 -12 9 16 14 31 11 33 -2 2 -9 -7 -15
-21z"/>
<path d="M2691 505 c0 -5 8 -26 19 -45 11 -19 19 -30 19 -25 0 6 -8 26 -19 45
-11 19 -19 31 -19 25z"/>
<path d="M1775 475 c-19 -19 -24 -31 -19 -48 11 -37 22 -41 21 -7 -1 21 4 36
16 44 26 17 52 -4 52 -43 0 -28 1 -30 12 -14 25 33 9 75 -34 88 -17 4 -30 -1
-48 -20z"/>
<path d="M1210 460 c0 -22 4 -28 15 -24 8 4 12 10 9 15 -3 5 2 9 10 9 9 0 16
-4 16 -10 0 -5 5 -10 10 -10 6 0 10 11 10 25 0 22 -4 25 -35 25 -32 0 -35 -2
-35 -30z"/>
<path d="M2397 477 c-5 -14 0 -17 33 -17 32 0 40 4 39 18 0 10 -3 12 -6 5 -6
-16 -50 -17 -55 -1 -3 7 -7 6 -11 -5z"/>
<path d="M2777 478 c18 -9 23 -20 25 -67 l3 -56 5 68 5 67 -30 -1 c-28 0 -29
-1 -8 -11z"/>
<path d="M3380 460 c0 -22 4 -28 15 -24 8 4 12 10 9 15 -3 5 2 9 11 9 9 0 13
-4 10 -10 -3 -5 1 -10 9 -10 10 0 16 9 16 25 0 22 -4 25 -35 25 -32 0 -35 -2
-35 -30z"/>
<path d="M3580 459 c0 -20 4 -29 13 -26 6 2 11 10 10 16 -2 6 4 11 12 11 8 0
15 -4 15 -10 0 -5 5 -10 10 -10 6 0 10 11 10 25 0 22 -4 25 -35 25 -32 0 -35
-2 -35 -31z"/>
<path d="M2081 465 c0 -5 4 -19 9 -30 7 -19 9 -18 19 8 6 16 11 29 11 31 0 1
-9 2 -20 2 -11 0 -20 -5 -19 -11z"/>
<path d="M2217 450 c3 -14 7 -27 9 -29 6 -7 11 2 17 29 5 21 3 26 -13 26 -16
0 -18 -5 -13 -26z"/>
<path d="M3192 451 c-10 -29 -10 -31 14 -31 27 0 29 5 10 39 l-13 24 -11 -32z"/>
<path d="M3261 475 c0 -5 6 -21 14 -35 8 -14 14 -20 14 -15 0 6 -6 21 -14 35
-8 14 -14 21 -14 15z"/>
<path d="M2640 461 c0 -5 -3 -16 -6 -25 -4 -12 0 -16 15 -16 22 0 25 8 15 34
-7 17 -24 22 -24 7z"/>
<path d="M1695 415 c6 -56 28 -80 84 -91 80 -16 152 38 150 110 -1 33 -3 29
-14 -17 -9 -44 -51 -77 -97 -77 -70 0 -102 27 -122 105 -3 11 -3 -2 -1 -30z"/>
<path d="M3696 434 c-8 -25 -45 -44 -86 -44 -23 0 -30 -5 -30 -20 0 -21 10
-26 26 -11 5 5 26 14 47 21 37 12 62 40 54 63 -2 7 -7 3 -11 -9z"/>
<path d="M2390 411 c0 -5 3 -16 6 -25 5 -14 8 -14 21 0 14 13 17 13 34 -2 18
-16 19 -16 19 9 0 25 -3 27 -40 27 -22 0 -40 -4 -40 -9z"/>
<path d="M1798 383 c6 -2 18 -2 25 0 6 3 1 5 -13 5 -14 0 -19 -2 -12 -5z"/>
<path d="M2926 373 c-6 -14 -5 -15 5 -6 7 7 10 15 7 18 -3 3 -9 -2 -12 -12z"/>
<path d="M2827 329 c8 -8 16 -8 30 0 16 9 14 10 -11 11 -22 0 -27 -3 -19 -11z"/>
</g>
</svg>
